<?xml version="1.0" encoding="UTF-8"?>
<svg xmlns="http://www.w3.org/2000/svg" version="1.1" viewBox="0 0 841.89 595.28">
  <defs>
    <style>
      .cls-1 {
        fill: #86aad2;
      }

      .cls-2 {
        fill: #004071;
      }

      .cls-3 {
        fill: #aca4cf;
      }

      .cls-4 {
        fill: #4c75a0;
      }

      .cls-5 {
        fill: #e6e7e8;
      }
    </style>
  </defs>
  <!-- Generator: Adobe Illustrator 28.7.1, SVG Export Plug-In . SVG Version: 1.2.0 Build 142)  -->
  <g>
    <g id="Layer_1">
      <g id="Layer_1-2" data-name="Layer_1">
        <g>
          <path class="cls-2" d="M557.98,279.93h-23.38c-.83,0-1.5.67-1.5,1.5v60.43c0,.83.67,1.5,1.5,1.5h14.12c.83,0,1.5-.67,1.5-1.5v-15.53h5.29c11.18,0,17.46-.91,22.9-6.05,4.12-3.74,6.3-9.76,6.3-17.42s-2.02-13.32-5.83-17.04c-5.01-4.91-11.71-5.9-20.9-5.9h0ZM557,312.48h-6.79v-18.7h6.71c7.65,0,10.5,2.49,10.5,9.17s-3.02,9.53-10.41,9.53h-.01ZM470.7,279.93h-13.76c-.83,0-1.5.67-1.5,1.5v35.82c0,4.58-.51,7.17-1.77,9.21-1.69,2.47-4.55,3.67-8.73,3.67-2.81,0-6.57-.61-8.55-3.49-1.7-2.5-2.04-5.65-2.04-9.92v-35.29c0-.83-.67-1.5-1.5-1.5h-14.12c-.83,0-1.5.67-1.5,1.5v33.88c0,10.17.99,17.48,5.9,22.49h.01c5.64,5.64,12.72,6.79,21.62,6.79s15.9-1.16,21.44-6.79c5.02-5.02,6-12.05,6-22.5v-33.88c0-.83-.67-1.5-1.5-1.5h0ZM604.9,279.93h-14.12c-.83,0-1.5.67-1.5,1.5v60.43c0,.83.67,1.5,1.5,1.5h14.12c.83,0,1.5-.67,1.5-1.5v-60.43c0-.83-.67-1.5-1.5-1.5ZM502.64,279.93h-23.38c-.83,0-1.5.67-1.5,1.5v60.43c0,.83.67,1.5,1.5,1.5h14.12c.83,0,1.5-.67,1.5-1.5v-15.53h5.29c11.18,0,17.46-.91,22.9-6.05,4.12-3.74,6.3-9.76,6.3-17.42s-2.02-13.32-5.83-17.04c-5.01-4.91-11.71-5.9-20.9-5.9h0ZM501.67,312.48h-6.79v-18.7h6.71c7.65,0,10.5,2.49,10.5,9.17s-3.02,9.53-10.41,9.53h0ZM412.4,328.45h-27.09v-47.02c0-.83-.67-1.5-1.5-1.5h-14.12c-.83,0-1.5.67-1.5,1.5v60.43c0,.83.67,1.5,1.5,1.5h42.7c.83,0,1.5-.67,1.5-1.5v-11.91c0-.83-.67-1.5-1.5-1.5h0Z"/>
          <g>
            <path class="cls-2" d="M376.32,375.62c-1.38,0-2.83-.42-3.91-1.52-1.28-1.3-1.78-3.2-1.78-5.53s.63-4.49,2.35-5.81c1.3-1.01,2.88-1.23,4.51-1.23.97,0,1.98.08,3.04.2v1.76c-.95-.12-2-.2-2.96-.2-3.64,0-4.88,2.02-4.88,5.32s1.34,5.26,4.15,5.26c1.23,0,2.67-.38,3.93-.73v1.7c-1.44.42-2.98.79-4.45.79h0Z"/>
            <path class="cls-2" d="M407.95,362.94c1.28,1.13,1.96,3,1.96,5.63s-.65,4.52-1.94,5.65c-1.19,1.05-2.79,1.4-4.45,1.4s-3.2-.38-4.41-1.4c-1.28-1.13-1.94-3-1.94-5.63s.63-4.53,1.94-5.65c1.19-1.05,2.79-1.4,4.43-1.4s3.22.38,4.41,1.4h0ZM407.83,368.63c0-3.5-1.32-5.37-4.29-5.37s-4.31,1.66-4.31,5.28,1.34,5.38,4.29,5.38,4.31-1.66,4.31-5.28h0Z"/>
            <path class="cls-2" d="M435.44,375.34l-2.98-5.18h-2.65v5.18h-2v-13.54h4.25c1.72,0,3.2.2,4.17,1.11.83.79,1.13,1.86,1.13,3.08,0,1.13-.32,2.21-1.09,2.94-.45.47-1.03.77-1.7.95l3.18,5.45h-2.31ZM432.01,363.43h-2.19v5.18h2.21c2.41,0,3.28-.89,3.28-2.59,0-1.88-1.13-2.59-3.3-2.59Z"/>
            <path class="cls-2" d="M463.49,375.34l-2.98-5.18h-2.65v5.18h-2v-13.54h4.25c1.72,0,3.2.2,4.17,1.11.83.79,1.13,1.86,1.13,3.08,0,1.13-.32,2.21-1.09,2.94-.46.47-1.03.77-1.7.95l3.18,5.45h-2.31ZM460.06,363.43h-2.19v5.18h2.21c2.41,0,3.28-.89,3.28-2.59,0-1.88-1.13-2.59-3.3-2.59Z"/>
            <path class="cls-2" d="M483.92,375.34v-13.54h8.22v1.7h-6.22v4.07h5.69v1.64h-5.69v4.43h6.54v1.7h-8.54Z"/>
            <path class="cls-2" d="M513.29,375.34v-11.84h-4.62v-1.7h11.24v1.7h-4.62v11.84h-2Z"/>
            <path class="cls-2" d="M546.02,362.94c1.28,1.13,1.96,3,1.96,5.63s-.65,4.52-1.94,5.65c-1.19,1.05-2.79,1.4-4.45,1.4s-3.2-.38-4.41-1.4c-1.28-1.13-1.94-3-1.94-5.63s.63-4.53,1.94-5.65c1.19-1.05,2.79-1.4,4.43-1.4s3.22.38,4.41,1.4ZM545.91,368.63c0-3.5-1.32-5.37-4.29-5.37s-4.31,1.66-4.31,5.28,1.34,5.38,4.29,5.38,4.31-1.66,4.31-5.28h0Z"/>
            <path class="cls-2" d="M573.52,375.34l-2.98-5.18h-2.65v5.18h-2v-13.54h4.25c1.72,0,3.2.2,4.17,1.11.83.79,1.13,1.86,1.13,3.08,0,1.13-.32,2.21-1.09,2.94-.45.47-1.03.77-1.7.95l3.18,5.45h-2.31,0ZM570.08,363.43h-2.19v5.18h2.21c2.41,0,3.28-.89,3.28-2.59,0-1.88-1.13-2.59-3.3-2.59h0Z"/>
            <path class="cls-2" d="M602.42,375.34l-1.28-3.58h-5.69l-1.29,3.58h-2.05l5-13.54h2.45l5.02,13.54h-2.16ZM598.33,363.8h-.08l-2.27,6.34h4.6l-2.25-6.34h0Z"/>
          </g>
          <g>
            <polygon class="cls-4" points="269.97 334.97 329.15 255.35 249.76 336.42 269.97 334.97"/>
            <polygon class="cls-2" points="249.76 336.42 329.12 255.37 327.63 249.34 312.79 260.76 321.49 233.24 315.05 219.65 291.11 245.44 278.97 245.26 267.37 255.17 235.49 268.52 253.89 297.77 251.13 315.83 249.76 336.42"/>
            <polygon class="cls-5" points="276.16 258.99 282.52 251.92 290.26 248.83 285.58 252.67 283.36 255.65 276.16 258.99"/>
            <polygon class="cls-5" points="308.52 228.85 314.95 222.28 319.52 232.03 314.09 227.05 308.52 228.85"/>
            <polygon class="cls-3" points="324.98 283.04 269.97 334.97 335.09 300.9 324.98 283.04"/>
            <polygon class="cls-1" points="324.98 283.04 329.15 255.35 269.97 334.97 324.98 283.04 324.98 283.04"/>
          </g>
        </g>
      </g>
    </g>
  </g>
</svg>