<?xml version="1.0" encoding="UTF-8"?>
<svg xmlns="http://www.w3.org/2000/svg" version="1.1" viewBox="0 0 841.89 595.28">
  <defs>
    <style>
      .cls-1 {
        fill: #dcdbdb;
      }

      .cls-2 {
        fill: #eceaea;
      }

      .cls-3 {
        fill: #004071;
      }

      .cls-4 {
        fill: #bbbdbf;
      }

      .cls-5 {
        fill: #cdcdcc;
      }
    </style>
  </defs>
  <!-- Generator: Adobe Illustrator 28.7.1, SVG Export Plug-In . SVG Version: 1.2.0 Build 142)  -->
  <g>
    <g id="Layer_1">
      <g id="Layer_1-2" data-name="Layer_1">
        <g>
          <path class="cls-2" d="M366.02,327.9c-1.4,0-2.87-.42-3.97-1.54-1.3-1.32-1.8-3.25-1.8-5.61s.64-4.55,2.38-5.89c1.32-1.02,2.92-1.24,4.57-1.24.98,0,2,.08,3.09.2v1.78c-.96-.12-2.02-.2-3.01-.2-3.69,0-4.95,2.04-4.95,5.39s1.36,5.33,4.21,5.33c1.24,0,2.71-.38,3.99-.74v1.72c-1.46.42-3.03.8-4.51.8h0Z"/>
          <path class="cls-2" d="M398.11,315.04c1.3,1.14,1.98,3.05,1.98,5.71s-.66,4.59-1.96,5.73c-1.2,1.06-2.83,1.42-4.51,1.42s-3.25-.38-4.47-1.42c-1.3-1.14-1.96-3.05-1.96-5.71s.64-4.59,1.96-5.73c1.2-1.06,2.82-1.42,4.49-1.42s3.27.38,4.47,1.42ZM397.99,320.81c0-3.55-1.34-5.45-4.35-5.45s-4.37,1.68-4.37,5.35,1.36,5.45,4.35,5.45,4.37-1.68,4.37-5.35Z"/>
          <path class="cls-2" d="M426.01,327.62l-3.03-5.25h-2.68v5.25h-2.02v-13.72h4.31c1.74,0,3.25.2,4.23,1.12.84.8,1.14,1.88,1.14,3.12,0,1.14-.32,2.24-1.1,2.99-.46.48-1.04.78-1.72.96l3.23,5.53h-2.36ZM422.52,315.54h-2.22v5.25h2.24c2.44,0,3.33-.9,3.33-2.62,0-1.9-1.14-2.62-3.35-2.62h0Z"/>
          <path class="cls-2" d="M454.47,327.62l-3.03-5.25h-2.68v5.25h-2.02v-13.72h4.31c1.74,0,3.25.2,4.23,1.12.84.8,1.14,1.88,1.14,3.12,0,1.14-.32,2.24-1.1,2.99-.46.48-1.04.78-1.72.96l3.23,5.53h-2.36ZM450.98,315.54h-2.22v5.25h2.24c2.44,0,3.33-.9,3.33-2.62,0-1.9-1.14-2.62-3.35-2.62h0Z"/>
          <path class="cls-2" d="M475.19,327.62v-13.72h8.33v1.72h-6.31v4.13h5.77v1.66h-5.77v4.49h6.63v1.72h-8.65Z"/>
          <path class="cls-2" d="M504.99,327.62v-12h-4.69v-1.72h11.4v1.72h-4.69v12h-2.02Z"/>
          <path class="cls-2" d="M538.2,315.04c1.3,1.14,1.98,3.05,1.98,5.71s-.66,4.59-1.96,5.73c-1.2,1.06-2.83,1.42-4.51,1.42s-3.25-.38-4.47-1.42c-1.3-1.14-1.96-3.05-1.96-5.71s.64-4.59,1.96-5.73c1.2-1.06,2.82-1.42,4.49-1.42s3.27.38,4.47,1.42h0ZM538.08,320.81c0-3.55-1.34-5.45-4.35-5.45s-4.37,1.68-4.37,5.35,1.36,5.45,4.35,5.45,4.37-1.68,4.37-5.35Z"/>
          <path class="cls-2" d="M566.1,327.62l-3.03-5.25h-2.68v5.25h-2.02v-13.72h4.31c1.74,0,3.25.2,4.23,1.12.84.8,1.14,1.88,1.14,3.12,0,1.14-.32,2.24-1.1,2.99-.46.48-1.04.78-1.72.96l3.23,5.53h-2.36ZM562.61,315.54h-2.22v5.25h2.24c2.44,0,3.33-.9,3.33-2.62,0-1.9-1.14-2.62-3.35-2.62h0Z"/>
          <path class="cls-2" d="M595.42,327.62l-1.3-3.63h-5.77l-1.3,3.63h-2.08l5.07-13.72h2.48l5.09,13.72h-2.19ZM591.27,315.92h-.08l-2.3,6.43h4.67l-2.28-6.43h0Z"/>
        </g>
        <g>
          <polygon class="cls-1" points="277.68 352.77 334.99 275.67 258.11 354.17 277.68 352.77"/>
          <polygon class="cls-2" points="258.11 354.17 334.95 275.68 333.51 269.85 319.14 280.9 327.57 254.26 321.33 241.1 298.15 266.07 286.39 265.89 275.16 275.5 244.29 288.42 262.11 316.75 259.43 334.23 258.11 354.17"/>
          <polygon class="cls-3" points="283.68 279.19 289.83 272.35 297.32 269.35 292.8 273.07 290.65 275.96 283.68 279.19"/>
          <polygon class="cls-3" points="315.01 250.01 321.23 243.65 325.66 253.08 320.4 248.27 315.01 250.01"/>
          <polygon class="cls-4" points="330.95 302.48 277.68 352.77 340.74 319.77 330.95 302.48"/>
          <polygon class="cls-5" points="334.99 275.67 277.68 352.77 330.95 302.48 334.99 275.67"/>
        </g>
      </g>
    </g>
  </g>
</svg>